<?xml version="1.0" standalone="no"?>
<!DOCTYPE svg PUBLIC "-//W3C//DTD SVG 20010904//EN"
 "http://www.w3.org/TR/2001/REC-SVG-20010904/DTD/svg10.dtd">
<svg version="1.0" xmlns="http://www.w3.org/2000/svg"
 width="1024.000000pt" height="1024.000000pt" viewBox="0 0 1024.000000 1024.000000"
 preserveAspectRatio="xMidYMid meet">

<g transform="translate(0.000000,1024.000000) scale(0.100000,-0.100000)"
fill="#000000" stroke="none">
<path d="M0 5120 l0 -5120 5120 0 5120 0 0 5120 0 5120 -5120 0 -5120 0 0
-5120z m5223 4103 c-40 -2 -106 -2 -145 0 -40 1 -8 3 72 3 80 0 112 -2 73 -3z
m-315 -10 c-16 -2 -40 -2 -55 0 -16 2 -3 4 27 4 30 0 43 -2 28 -4z m540 0
c-15 -2 -42 -2 -60 0 -18 2 -6 4 27 4 33 0 48 -2 33 -4z m-675 -10 c-13 -2
-33 -2 -45 0 -13 2 -3 4 22 4 25 0 35 -2 23 -4z m790 0 c-13 -2 -33 -2 -45 0
-13 2 -3 4 22 4 25 0 35 -2 23 -4z m-890 -10 c-7 -2 -21 -2 -30 0 -10 3 -4 5
12 5 17 0 24 -2 18 -5z m980 0 c-7 -2 -21 -2 -30 0 -10 3 -4 5 12 5 17 0 24
-2 18 -5z m-1070 -10 c-7 -2 -19 -2 -25 0 -7 3 -2 5 12 5 14 0 19 -2 13 -5z
m1140 0 c-7 -2 -21 -2 -30 0 -10 3 -4 5 12 5 17 0 24 -2 18 -5z m-1200 -10
c-7 -2 -21 -2 -30 0 -10 3 -4 5 12 5 17 0 24 -2 18 -5z m1270 0 c-7 -2 -21 -2
-30 0 -10 3 -4 5 12 5 17 0 24 -2 18 -5z m-1340 -10 c-7 -2 -19 -2 -25 0 -7 3
-2 5 12 5 14 0 19 -2 13 -5z m1394 1 c-3 -3 -12 -4 -19 -1 -8 3 -5 6 6 6 11 1
17 -2 13 -5z m-1454 -11 c-7 -2 -19 -2 -25 0 -7 3 -2 5 12 5 14 0 19 -2 13 -5z
m1510 0 c-7 -2 -19 -2 -25 0 -7 3 -2 5 12 5 14 0 19 -2 13 -5z m-1560 -10 c-7
-2 -19 -2 -25 0 -7 3 -2 5 12 5 14 0 19 -2 13 -5z m1610 0 c-7 -2 -19 -2 -25
0 -7 3 -2 5 12 5 14 0 19 -2 13 -5z m-1666 -9 c-3 -3 -12 -4 -19 -1 -8 3 -5 6
6 6 11 1 17 -2 13 -5z m1716 -1 c-7 -2 -19 -2 -25 0 -7 3 -2 5 12 5 14 0 19
-2 13 -5z m-1766 -9 c-3 -3 -12 -4 -19 -1 -8 3 -5 6 6 6 11 1 17 -2 13 -5z
m1810 0 c-3 -3 -12 -4 -19 -1 -8 3 -5 6 6 6 11 1 17 -2 13 -5z m-1850 -10 c-3
-3 -12 -4 -19 -1 -8 3 -5 6 6 6 11 1 17 -2 13 -5z m1890 0 c-3 -3 -12 -4 -19
-1 -8 3 -5 6 6 6 11 1 17 -2 13 -5z m-1930 -10 c-3 -3 -12 -4 -19 -1 -8 3 -5
6 6 6 11 1 17 -2 13 -5z m2010 -10 c-3 -3 -12 -4 -19 -1 -8 3 -5 6 6 6 11 1
17 -2 13 -5z m-2090 -10 c-3 -3 -12 -4 -19 -1 -8 3 -5 6 6 6 11 1 17 -2 13 -5z
m2130 0 c-3 -3 -12 -4 -19 -1 -8 3 -5 6 6 6 11 1 17 -2 13 -5z m-2182 -14
c-11 -5 -27 -9 -35 -9 -9 0 -8 4 5 9 11 5 27 9 35 9 9 0 8 -4 -5 -9z m2252 -6
c-3 -3 -12 -4 -19 -1 -8 3 -5 6 6 6 11 1 17 -2 13 -5z m-2340 -20 c-3 -3 -12
-4 -19 -1 -8 3 -5 6 6 6 11 1 17 -2 13 -5z m-167 -54 c-8 -5 -22 -9 -30 -9
-10 0 -8 3 5 9 27 12 43 12 25 0z m-140 -50 c-8 -5 -19 -10 -25 -10 -5 0 -3 5
5 10 8 5 20 10 25 10 6 0 3 -5 -5 -10z m3040 -10 c8 -5 11 -10 5 -10 -5 0 -17
5 -25 10 -8 5 -10 10 -5 10 6 0 17 -5 25 -10z m-3090 -10 c-8 -5 -19 -10 -25
-10 -5 0 -3 5 5 10 8 5 20 10 25 10 6 0 3 -5 -5 -10z m3160 -20 c8 -5 11 -10
5 -10 -5 0 -17 5 -25 10 -8 5 -10 10 -5 10 6 0 17 -5 25 -10z m-3230 -10 c-8
-5 -19 -10 -25 -10 -5 0 -3 5 5 10 8 5 20 10 25 10 6 0 3 -5 -5 -10z m3300
-20 c8 -5 11 -10 5 -10 -5 0 -17 5 -25 10 -8 5 -10 10 -5 10 6 0 17 -5 25 -10z
m-3380 -15 c-14 -8 -29 -14 -35 -14 -5 0 1 6 15 14 14 8 30 14 35 14 6 0 -1
-6 -15 -14z m3465 -25 c3 -6 -1 -7 -9 -4 -18 7 -21 14 -7 14 6 0 13 -4 16 -10z
m-3536 -4 c-2 -2 -15 -9 -29 -15 -24 -11 -24 -11 -6 3 16 13 49 24 35 12z
m3591 -21 c17 -9 30 -18 30 -21 0 -4 -59 23 -69 32 -10 9 13 3 39 -11z m-1425
-28 c11 -3 31 -8 45 -11 l26 -5 -4 -98 c-2 -54 -5 -99 -7 -101 -1 -1 -36 6
-76 18 -40 11 -97 20 -126 20 -44 0 -55 -4 -72 -26 -45 -57 -23 -92 104 -164
104 -60 137 -88 173 -149 53 -90 22 -238 -66 -311 -80 -66 -233 -81 -392 -38
-98 27 -95 21 -85 153 l7 91 46 -23 c60 -29 187 -56 230 -48 72 13 95 80 45
127 -16 14 -61 43 -102 64 -142 75 -201 151 -201 260 0 90 62 194 140 234 46
24 238 29 315 7z m-2245 9 c0 -2 -7 -7 -16 -10 -8 -3 -12 -2 -9 4 6 10 25 14
25 6z m1638 -30 c27 -26 39 -91 28 -151 -12 -63 -92 -135 -150 -135 -25 0 -25
0 -11 41 20 57 19 63 -15 97 -33 34 -40 80 -18 128 26 56 119 68 166 20z
m-388 -68 c35 -94 298 -708 320 -745 l19 -32 -27 -5 c-15 -3 -61 -10 -102 -16
-41 -6 -83 -14 -92 -16 -14 -4 -18 1 -18 19 0 13 -7 44 -16 70 -18 52 -15 52
-119 34 l-70 -13 0 -39 c0 -22 4 -56 8 -76 l7 -37 -120 -29 c-118 -28 -121
-29 -113 -9 4 12 9 220 10 463 l3 442 33 6 c26 5 223 40 248 44 4 1 17 -27 29
-61z m-1350 47 c0 -2 -18 -14 -40 -25 -22 -11 -40 -18 -40 -15 0 2 17 13 38
24 42 23 42 23 42 16z m3970 -41 c0 -2 -13 2 -30 11 -16 9 -30 18 -30 21 0 2
14 -2 30 -11 17 -9 30 -18 30 -21z m-4080 -19 c0 -2 -10 -9 -22 -15 -22 -11
-22 -10 -4 4 21 17 26 19 26 11z m4150 -21 c0 -2 -9 0 -20 6 -11 6 -20 13 -20
16 0 2 9 0 20 -6 11 -6 20 -13 20 -16z m-894 -50 c253 -91 311 -132 335 -240
13 -56 12 -60 -26 -171 -49 -145 -80 -194 -147 -227 -65 -32 -135 -34 -237 -6
-40 12 -74 19 -76 18 -10 -16 -65 -189 -65 -207 0 -17 -4 -22 -15 -17 -9 3
-61 20 -116 37 l-101 31 21 22 c12 12 32 49 45 82 39 96 236 685 236 705 0 11
4 19 9 19 5 0 66 -21 137 -46z m959 11 l20 -16 -20 10 c-11 5 -29 17 -40 26
l-20 16 20 -10 c11 -5 29 -17 40 -26z m-4315 0 c0 -2 -10 -9 -22 -15 -22 -11
-22 -10 -4 4 21 17 26 19 26 11z m4395 -50 l20 -16 -20 10 c-11 5 -29 17 -40
26 l-20 16 20 -10 c11 -5 29 -17 40 -26z m-4460 9 c-26 -20 -55 -36 -55 -30 0
5 63 46 70 46 3 -1 -4 -8 -15 -16z m4545 -70 c0 -3 -13 4 -30 16 -16 12 -30
24 -30 26 0 3 14 -4 30 -16 17 -12 30 -24 30 -26z m-4640 11 c0 -2 -20 -18
-45 -35 -25 -17 -45 -29 -45 -26 0 4 80 64 88 66 1 0 2 -2 2 -5z m1009 -39
c55 -38 97 -108 132 -216 34 -106 36 -140 8 -200 l-20 -45 124 -121 124 -121
-98 -46 -98 -45 -102 110 c-91 98 -105 109 -128 103 -14 -4 -27 -8 -29 -9 -6
-7 90 -222 108 -241 19 -20 19 -20 -85 -68 -58 -26 -110 -47 -115 -47 -6 0
-10 11 -10 25 0 52 -297 724 -340 770 -19 20 -18 20 108 78 205 93 248 107
318 104 49 -2 71 -9 103 -31z m3722 -33 c13 -16 12 -17 -3 -4 -10 7 -18 15
-18 17 0 8 8 3 21 -13z m-4831 3 c0 -2 -8 -10 -17 -17 -16 -13 -17 -12 -4 4
13 16 21 21 21 13z m4871 -33 c13 -16 12 -17 -3 -4 -10 7 -18 15 -18 17 0 8 8
3 21 -13z m-4911 3 c0 -2 -8 -10 -17 -17 -16 -13 -17 -12 -4 4 13 16 21 21 21
13z m4951 -33 c13 -16 12 -17 -3 -4 -10 7 -18 15 -18 17 0 8 8 3 21 -13z
m-4991 3 c0 -2 -8 -10 -17 -17 -16 -13 -17 -12 -4 4 13 16 21 21 21 13z m5035
-36 c10 -11 16 -20 13 -20 -3 0 -13 9 -23 20 -10 11 -16 20 -13 20 3 0 13 -9
23 -20z m-5080 1 c-3 -5 -24 -24 -48 -41 l-42 -32 45 41 c46 41 56 48 45 32z
m5130 -41 c10 -11 16 -20 13 -20 -3 0 -13 9 -23 20 -10 11 -16 20 -13 20 3 0
13 -9 23 -20z m65 -55 c13 -14 21 -25 18 -25 -2 0 -15 11 -28 25 -13 14 -21
25 -18 25 2 0 15 -11 28 -25z m-5300 12 c0 -2 -12 -14 -27 -28 l-28 -24 24 28
c23 25 31 32 31 24z m4661 -34 c80 -39 142 -92 173 -146 65 -114 34 -222 -136
-473 -116 -172 -215 -242 -326 -231 -65 7 -159 51 -220 102 -61 53 -86 105
-86 186 0 60 5 76 56 180 110 224 224 368 321 403 64 23 143 16 218 -21z
m-3941 -55 c31 -46 49 -83 43 -85 -24 -8 -153 -95 -153 -104 0 -16 342 -523
367 -544 l23 -20 -87 -65 c-49 -36 -91 -66 -94 -68 -4 -2 -12 11 -18 28 -20
60 -355 536 -375 534 -7 -1 -43 -25 -80 -54 -37 -29 -68 -51 -70 -49 -2 2 -11
20 -21 39 -10 19 -31 54 -46 77 -16 23 -29 44 -29 46 0 10 467 347 480 347 3
-1 30 -37 60 -82z m4655 12 c21 -22 37 -40 34 -40 -3 0 -23 18 -44 40 -21 22
-37 40 -34 40 3 0 23 -18 44 -40z m-5475 -15 c-24 -25 -46 -45 -49 -45 -3 0
15 20 39 45 24 25 46 45 49 45 3 0 -15 -20 -39 -45z m5773 -280 c83 -94 59
-70 -123 120 -93 97 -106 112 -41 50 51 -49 124 -126 164 -170z m-5923 140
c-41 -41 -77 -75 -79 -75 -3 0 28 34 69 75 41 41 77 75 79 75 3 0 -28 -34 -69
-75z m-120 -128 c0 -2 -19 -21 -42 -42 l-43 -40 40 43 c36 39 45 47 45 39z
m450 -112 c0 -8 40 -57 89 -109 49 -52 159 -173 243 -268 168 -188 220 -238
246 -238 10 0 -17 -34 -73 -90 -49 -49 -93 -90 -96 -90 -4 0 -9 10 -13 23 -12
47 -504 576 -578 622 -14 8 -2 23 75 91 89 79 107 89 107 59z m-540 12 c0 -2
-12 -14 -27 -28 l-28 -24 24 28 c23 25 31 32 31 24z m6236 -29 l29 -33 -32 29
c-31 28 -38 36 -30 36 2 0 16 -15 33 -32z m-510 -18 c28 -13 81 -55 121 -96
60 -60 75 -82 88 -129 14 -47 15 -65 5 -103 -20 -81 -58 -133 -214 -288 -173
-172 -229 -208 -326 -209 -72 0 -131 29 -208 103 -76 74 -102 124 -102 200 0
96 66 199 247 385 158 162 260 198 389 137z m-5786 -23 c0 -2 -10 -12 -22 -23
l-23 -19 19 23 c18 21 26 27 26 19z m6394 -77 c26 -33 45 -60 43 -60 -3 0 -31
33 -63 73 -32 39 -51 66 -43 59 9 -6 37 -39 63 -72z m-6464 -10 c-17 -22 -34
-40 -37 -40 -2 0 10 18 27 40 17 22 34 40 37 40 2 0 -10 -18 -27 -40z m-40
-54 c0 -2 -8 -10 -17 -17 -16 -13 -17 -12 -4 4 13 16 21 21 21 13z m6571 -23
c13 -16 12 -17 -3 -4 -10 7 -18 15 -18 17 0 8 8 3 21 -13z m-6621 -43 c-12
-16 -24 -30 -26 -30 -3 0 4 14 16 30 12 17 24 30 26 30 3 0 -4 -13 -16 -30z
m6651 3 c13 -16 12 -17 -3 -4 -10 7 -18 15 -18 17 0 8 8 3 21 -13z m49 -68
c17 -25 29 -45 26 -45 -3 0 -19 20 -36 45 -17 25 -29 45 -26 45 3 0 19 -20 36
-45z m-6750 -5 c-12 -16 -24 -30 -26 -30 -3 0 4 14 16 30 12 17 24 30 26 30 3
0 -4 -13 -16 -30z m820 -270 c288 -230 288 -230 317 -230 13 0 23 -3 23 -6 0
-10 -134 -184 -142 -184 -4 0 -49 35 -100 78 -51 43 -128 106 -170 140 l-77
62 68 -142 c38 -79 72 -154 76 -167 8 -27 21 -29 -207 28 -81 20 -144 34 -140
31 4 -4 32 -27 62 -52 79 -66 278 -216 293 -221 7 -2 -11 -34 -48 -82 -33 -43
-63 -82 -66 -88 -4 -5 -49 24 -100 65 -52 41 -191 150 -309 242 -118 92 -230
180 -249 195 l-34 26 54 88 c31 49 61 87 70 87 8 0 96 -20 195 -45 98 -25 180
-45 182 -45 2 0 -10 19 -26 43 -33 49 -170 279 -174 294 -2 6 28 47 65 92 l69
81 61 -47 c34 -26 172 -135 307 -243z m2503 253 c-13 -2 -35 -2 -50 0 -16 2
-5 4 22 4 28 0 40 -2 28 -4z m120 0 c-18 -2 -48 -2 -65 0 -18 2 -4 4 32 4 36
0 50 -2 33 -4z m-226 -9 c-3 -3 -12 -4 -19 -1 -8 3 -5 6 6 6 11 1 17 -2 13 -5z
m-3263 -42 c-9 -16 -25 -39 -36 -53 l-20 -24 16 28 c28 48 48 77 53 77 2 0 -3
-13 -13 -28z m6906 -92 c6 -11 8 -20 6 -20 -3 0 -10 9 -16 20 -6 11 -8 20 -6
20 3 0 10 -9 16 -20z m-6970 -10 c-6 -11 -13 -20 -16 -20 -2 0 0 9 6 20 6 11
13 20 16 20 2 0 0 -9 -6 -20z m6610 -96 l70 -86 -34 -17 c-25 -13 -318 -229
-525 -387 -1 -1 36 -51 84 -109 48 -59 83 -110 79 -114 -42 -37 -147 -102
-153 -95 -4 5 -42 52 -84 104 -42 52 -107 131 -146 175 -39 44 -71 82 -71 85
0 3 12 10 28 16 36 15 639 469 655 494 6 11 15 20 19 20 4 0 39 -39 78 -86z
m-6640 46 c-6 -11 -13 -20 -16 -20 -2 0 0 9 6 20 6 11 13 20 16 20 2 0 0 -9
-6 -20z m3703 -11 c187 -47 345 -153 452 -304 55 -78 86 -141 121 -245 26 -78
28 -97 27 -235 0 -134 -3 -160 -27 -240 -48 -160 -123 -275 -249 -381 -117
-100 -224 -151 -379 -183 -78 -16 -110 -18 -198 -11 -121 10 -187 28 -285 77
-215 108 -364 280 -425 493 -31 107 -38 298 -16 410 49 242 206 445 431 558
178 90 356 109 548 61z m-813 7 c0 -2 -8 -10 -17 -17 -16 -13 -17 -12 -4 4 13
16 21 21 21 13z m4160 -16 c6 -11 8 -20 6 -20 -3 0 -10 9 -16 20 -6 11 -8 20
-6 20 3 0 10 -9 16 -20z m-2885 -10 c10 -11 16 -20 13 -20 -3 0 -13 9 -23 20
-10 11 -16 20 -13 20 3 0 13 -9 23 -20z m-4195 -20 c-6 -11 -13 -20 -16 -20
-2 0 0 9 6 20 6 11 13 20 16 20 2 0 0 -9 -6 -20z m2880 17 c0 -1 -28 -29 -62
-62 l-63 -60 60 63 c55 58 65 67 65 59z m4240 -57 c6 -11 8 -20 6 -20 -3 0
-10 9 -16 20 -6 11 -8 20 -6 20 3 0 10 -9 16 -20z m-7175 -60 c-9 -16 -18 -30
-21 -30 -2 0 2 14 11 30 9 17 18 30 21 30 2 0 -2 -13 -11 -30z m4360 10 c10
-11 16 -20 13 -20 -3 0 -13 9 -23 20 -10 11 -16 20 -13 20 3 0 13 -9 23 -20z
m2865 -40 c11 -22 18 -40 15 -40 -2 0 -14 18 -25 40 -11 22 -18 40 -15 40 2 0
14 -18 25 -40z m-2271 -115 c7 -60 25 -206 42 -324 16 -117 29 -219 27 -225
-2 -6 -84 -91 -184 -188 l-180 -178 -53 66 -53 66 17 103 c17 97 17 235 1 397
-2 21 0 36 4 33 4 -3 23 12 41 33 17 20 73 82 124 137 50 55 114 125 141 156
27 30 52 50 55 45 3 -6 11 -60 18 -121z m-2149 121 c0 -2 -8 -10 -17 -17 -16
-13 -17 -12 -4 4 13 16 21 21 21 13z m-665 -46 c0 -29 -4 -36 -23 -38 -43 -6
-69 37 -40 66 7 7 24 12 38 10 21 -3 25 -8 25 -38z m2266 23 c13 -16 12 -17
-3 -4 -10 7 -18 15 -18 17 0 8 8 3 21 -13z m645 -45 l29 -33 -32 29 c-31 28
-38 36 -30 36 2 0 16 -15 33 -32z m2253 -103 c0 -5 -8 6 -19 25 -11 19 -19 40
-19 45 0 6 8 -6 19 -25 11 -19 19 -39 19 -45z m-7413 -22 c-14 -26 -25 -45
-26 -41 0 12 43 98 48 94 2 -2 -8 -26 -22 -53z m2817 42 c-3 -9 -8 -14 -10
-11 -3 3 -2 9 2 15 9 16 15 13 8 -4z m2467 -50 c13 -14 21 -25 18 -25 -2 0
-15 11 -28 25 -13 14 -21 25 -18 25 2 0 15 -11 28 -25z m2150 3 c0 -7 -6 -33
-14 -58 -12 -40 -17 -46 -49 -51 -28 -4 -59 -28 -139 -104 -57 -54 -102 -102
-100 -107 1 -5 -2 -7 -7 -3 -6 3 -52 -29 -104 -71 l-94 -76 -6 -171 c-4 -95
-7 -215 -7 -268 l0 -96 -40 -27 c-39 -26 -40 -27 -33 -74 3 -26 7 -48 8 -50 2
-2 17 6 35 16 29 18 30 21 13 31 -10 6 -13 11 -7 11 5 0 15 -5 21 -11 7 -7 48
9 142 55 l131 66 0 208 c1 284 3 311 20 322 13 9 8 14 -11 12 -4 -1 -4 9 -1
21 5 17 7 18 10 5 5 -27 28 -28 79 -3 26 13 60 29 76 34 25 10 27 15 27 68 1
69 11 196 16 202 6 7 5 -108 -3 -193 -4 -58 -10 -79 -22 -83 -41 -14 -152 -67
-160 -77 -5 -6 -12 -126 -16 -266 -4 -140 -8 -255 -9 -256 0 -1 -80 -42 -178
-93 l-176 -91 -8 77 c-3 43 -4 217 0 388 6 278 8 311 24 323 9 7 40 27 67 45
28 18 124 95 213 172 123 106 177 145 220 162 67 26 82 28 82 11z m-7479 -95
c-12 -20 -14 -14 -5 12 4 9 9 14 11 11 3 -2 0 -13 -6 -23z m5449 -38 c19 -19
32 -35 29 -35 -3 0 -20 16 -39 35 -19 19 -32 35 -29 35 3 0 20 -16 39 -35z
m1977 9 c-3 -3 -12 -4 -19 -1 -8 3 -5 6 6 6 11 1 17 -2 13 -5z m-1467 -467 l3
-138 -126 -132 -125 -132 -120 119 -120 118 124 160 c71 91 121 165 117 171
-3 7 -3 9 2 5 4 -4 58 55 119 133 l111 140 6 -153 c4 -84 8 -215 9 -291z
m1455 405 c-7 -8 -35 7 -35 18 0 6 7 6 20 -2 10 -7 17 -14 15 -16z m-4790
-142 c-7 -63 -24 -215 -36 -337 l-23 -222 -95 -79 c-53 -44 -148 -125 -211
-181 -63 -55 -117 -101 -120 -101 -3 0 -72 67 -153 148 l-148 149 223 210
c306 289 571 533 574 530 1 -1 -4 -54 -11 -117z m2921 88 l29 -33 -32 29 c-31
28 -38 36 -30 36 2 0 16 -15 33 -32z m-5026 -66 c131 -101 140 -120 140 -309
0 -138 1 -143 23 -158 13 -8 38 -35 57 -60 38 -50 55 -57 185 -74 60 -9 90
-18 118 -39 l38 -27 2 -151 2 -151 45 -39 c25 -21 94 -75 153 -118 134 -99
134 -98 118 -316 l-11 -155 57 -50 c32 -27 98 -88 146 -135 l88 -85 9 -200 c8
-174 11 -201 27 -213 39 -30 145 -74 295 -123 193 -62 197 -66 257 -239 23
-67 40 -124 38 -126 -1 -2 -28 29 -60 69 -117 148 -132 160 -242 196 -55 17
-127 45 -160 62 -33 17 -94 44 -137 60 -58 23 -77 35 -82 53 -3 13 -10 114
-16 226 l-10 203 -121 121 -121 121 5 166 5 166 -89 64 c-49 35 -128 95 -176
133 -49 38 -98 75 -110 83 -22 15 -23 20 -23 179 0 192 5 184 -115 184 -42 0
-86 5 -98 11 -12 7 -55 43 -95 81 -40 38 -84 74 -97 80 l-25 11 0 162 0 162
-42 40 c-24 21 -68 58 -99 81 l-57 43 -221 -5 -222 -5 7 21 c3 12 12 35 19 52
l13 31 244 -5 243 -5 95 -73z m2247 66 c-3 -8 -6 -5 -6 6 -1 11 2 17 5 13 3
-3 4 -12 1 -19z m-1080 -10 c-3 -13 -18 -135 -33 -272 l-28 -249 -157 -117
-156 -117 -120 104 -120 105 71 66 c39 36 105 98 146 137 261 249 386 365 394
365 4 0 6 -10 3 -22z m5658 -8 c-2 -17 0 -28 5 -25 5 3 11 1 14 -4 4 -5 -2 -8
-11 -6 -10 1 -23 -2 -29 -7 -7 -5 -16 -8 -20 -7 -27 5 -36 -1 -25 -15 8 -10 9
-16 1 -21 -9 -6 -15 18 -10 40 2 6 3 23 3 38 0 19 5 26 14 23 7 -3 23 -1 35 4
13 5 24 9 25 9 1 1 0 -13 -2 -29z m60 21 c-3 -5 -1 -12 5 -16 5 -3 10 -12 10
-18 0 -7 -7 -3 -15 7 -13 17 -12 36 1 36 3 0 3 -4 -1 -9z m-4645 -68 c0 -21
-3 -24 -9 -14 -5 8 -7 20 -4 28 8 21 13 15 13 -14z m3371 -20 c13 -16 12 -17
-3 -4 -10 7 -18 15 -18 17 0 8 8 3 21 -13z m1088 1 c6 4 11 0 11 -9 0 -11 5
-15 15 -11 8 3 15 3 15 0 0 -2 -11 -9 -25 -14 -14 -5 -25 -13 -24 -17 4 -21
-2 -43 -11 -43 -5 0 -6 8 -3 18 6 14 4 15 -8 5 -9 -7 -24 -11 -35 -9 -14 3
-20 -2 -21 -15 -2 -19 16 -22 29 -4 4 5 10 6 15 2 9 -9 -17 -28 -29 -21 -4 3
-8 -3 -9 -13 0 -11 -6 -5 -16 16 -14 33 -14 36 9 52 14 11 25 14 29 8 4 -7 12
-5 21 5 9 8 18 13 21 10 2 -3 7 2 11 11 5 13 1 15 -17 11 -12 -3 -17 -3 -10 0
7 3 9 13 6 22 -4 13 -3 14 5 3 5 -7 15 -10 21 -7z m-1563 -36 l29 -33 -32 29
c-31 28 -38 36 -30 36 2 0 16 -15 33 -32z m-5314 13 c-11 -7 -11 -9 2 -14 8
-3 16 -2 18 4 2 5 38 -18 81 -52 l77 -62 0 -162 0 -163 48 -35 c26 -20 56 -45
66 -56 l19 -21 -207 3 -206 2 37 -32 c21 -17 43 -28 48 -24 6 4 24 8 42 10 28
2 31 0 26 -20 -6 -20 -7 -21 -19 -5 -7 10 -15 13 -18 7 -4 -6 -14 -8 -24 -5
-14 5 -14 4 -3 -4 8 -6 21 -8 30 -4 9 3 13 1 9 -3 -15 -16 65 -54 115 -55 30
0 46 4 42 10 -4 6 -11 7 -17 4 -6 -4 -14 0 -19 7 -7 11 -9 11 -9 1 0 -10 -3
-10 -14 0 -8 7 -12 16 -9 21 2 4 -3 7 -11 7 -9 0 -16 -8 -16 -17 0 -14 -3 -14
-12 -5 -10 10 -10 15 1 21 9 6 10 11 2 15 -6 4 -11 13 -11 19 0 7 7 4 15 -6
13 -18 14 -18 33 1 18 18 23 19 45 7 22 -11 25 -11 20 1 -6 17 13 19 21 2 4
-10 8 -10 11 -2 3 7 15 10 25 7 11 -3 31 2 45 11 30 20 54 21 61 2 3 -8 22
-26 42 -39 31 -21 54 -26 135 -32 l97 -7 0 -166 1 -167 93 -70 94 -70 -207 -3
c-113 -2 -221 0 -238 3 l-33 6 0 208 0 209 -117 4 c-134 6 -166 18 -277 110
l-58 48 1 241 c1 132 -2 246 -7 252 -4 7 -13 24 -20 40 l-12 27 88 0 c51 0 82
-4 74 -9z m6758 -46 c-7 -8 -9 -15 -4 -15 12 0 -38 -34 -54 -36 -10 -2 -11 1
-1 12 6 8 14 12 17 10 2 -3 13 6 24 19 11 14 22 25 25 25 3 0 0 -7 -7 -15z
m215 -15 c3 -6 -1 -7 -9 -4 -18 7 -21 14 -7 14 6 0 13 -4 16 -10z m-314 -64
c-7 -8 -11 -61 -10 -146 0 -72 -2 -135 -5 -138 -3 -3 -6 58 -6 134 0 96 4 144
12 152 16 16 23 15 9 -2z m114 -6 c16 -17 16 -20 3 -15 -9 4 -19 13 -22 21 -7
19 -2 18 19 -6z m-14 -23 c16 -22 15 -23 -7 -34 -13 -6 -24 -8 -24 -3 0 4 7
11 17 14 14 6 14 9 -5 27 -12 11 -22 22 -22 24 0 10 26 -8 41 -28z m-21 -11
c0 -2 -7 -7 -16 -10 -8 -3 -12 -2 -9 4 6 10 25 14 25 6z m-73 -88 c-3 -8 -6
-5 -6 6 -1 11 2 17 5 13 3 -3 4 -12 1 -19z m20 -10 c-3 -7 -5 -2 -5 12 0 14 2
19 5 13 2 -7 2 -19 0 -25z m-331 -194 c-25 -45 -26 -51 -26 -229 0 -144 -3
-185 -14 -194 -8 -7 -16 -8 -18 -4 -3 4 -3 2 -1 -6 2 -7 -28 -43 -65 -80 l-69
-66 -6 -285 c-4 -157 -7 -291 -7 -297 0 -10 -47 -13 -200 -13 -110 0 -200 4
-200 9 0 5 6 9 13 8 6 0 21 1 32 2 17 1 18 3 5 11 -10 6 -11 10 -2 10 6 0 12
7 12 15 0 8 -7 15 -15 15 -8 0 -15 5 -15 10 0 6 5 10 12 10 6 0 9 3 6 6 -4 3
-16 1 -27 -6 -21 -11 -21 -9 -21 105 l0 115 133 0 132 0 3 298 4 297 96 98 97
97 53 0 c29 0 51 4 48 8 -2 4 -27 5 -55 2 -49 -5 -56 -9 -151 -104 l-100 -99
-1 -78 c-1 -44 -3 -83 -4 -89 -1 -5 -3 -102 -4 -215 l-1 -205 -130 0 -130 0 0
-302 c0 -167 -3 -313 -6 -325 -4 -15 -14 -23 -29 -23 -20 0 -24 9 -41 83 -17
72 -19 116 -16 357 2 236 5 277 19 292 14 15 33 18 130 18 l113 0 0 213 c0
116 3 237 7 267 6 60 4 56 171 236 l77 83 108 0 109 1 -26 -46z m152 39 c-10
-2 -28 -2 -40 0 -13 2 -5 4 17 4 22 1 32 -1 23 -4z m-6411 -169 c-3 -3 -12 -4
-19 -1 -8 3 -5 6 6 6 11 1 17 -2 13 -5z m6540 -16 c-3 -8 -6 -5 -6 6 -1 11 2
17 5 13 3 -3 4 -12 1 -19z m-2319 -487 c1 -4 -32 -40 -73 -81 l-75 -74 -34 33
c-20 19 -33 37 -31 41 3 4 -5 16 -18 26 l-22 19 20 -24 c41 -49 -5 -13 -106
83 l-104 98 25 17 c14 9 49 35 78 59 30 25 58 40 65 36 7 -4 9 -4 5 1 -4 4 -3
14 4 22 9 11 35 -12 137 -118 69 -73 127 -135 129 -138z m999 177 c17 -13 69
-57 116 -98 l86 -74 -36 -46 c-19 -25 -93 -101 -163 -170 l-128 -125 -64 90
c-70 99 -97 144 -98 162 -1 29 221 283 248 283 4 0 22 -10 39 -22z m-2419
-274 c83 -123 152 -225 152 -228 0 -11 -165 -97 -180 -93 -9 2 -95 71 -192
153 l-176 149 43 46 c61 65 165 208 166 227 0 13 4 11 17 -8 9 -13 86 -124
170 -246z m299 116 c63 -28 84 -46 179 -149 l107 -116 -94 92 c-78 76 -97 90
-109 80 -26 -20 -17 -40 56 -127 38 -47 74 -92 79 -100 6 -9 -3 0 -20 20 -16
19 -70 79 -120 133 -212 232 -207 227 -178 213 15 -8 60 -28 100 -46z m-1535
-147 l198 -198 0 -112 0 -113 148 -145 c165 -160 154 -142 183 -323 11 -69 15
-75 48 -96 20 -12 54 -30 76 -39 22 -9 32 -16 22 -16 -10 -1 -40 11 -68 25
-28 14 -48 21 -45 15 9 -14 -11 -24 -37 -17 -14 3 -26 18 -33 40 -9 29 -8 33
5 28 9 -3 20 -10 24 -16 5 -6 6 4 3 23 -4 19 -9 58 -12 87 -6 51 -9 54 -83
113 -42 33 -131 113 -199 178 l-122 118 0 107 0 107 -168 169 c-92 93 -179
176 -193 185 -23 16 -30 15 -98 -4 l-74 -21 -51 51 -51 51 165 0 165 0 197
-197z m-140 -198 c49 -53 57 -66 63 -115 7 -54 9 -58 118 -167 102 -103 143
-132 116 -82 -6 12 -8 23 -5 27 4 3 -4 17 -16 31 -13 14 2 3 33 -24 31 -28 57
-56 58 -63 1 -7 5 -11 9 -8 5 3 31 -17 58 -45 27 -28 40 -47 30 -43 -15 6 -17
4 -11 -6 6 -9 4 -11 -4 -6 -7 5 -10 14 -7 21 7 20 -36 55 -62 50 -17 -3 -22 0
-20 13 2 10 -3 16 -10 14 -8 -1 -11 1 -8 6 2 4 -4 14 -16 21 -11 7 -17 8 -14
2 4 -5 2 -12 -4 -16 -11 -7 12 -35 29 -35 6 0 11 -6 11 -14 0 -14 27 -31 43
-27 5 1 6 -3 3 -8 -3 -5 40 -49 97 -99 108 -96 111 -101 131 -219 4 -28 24
-53 39 -49 7 1 8 1 4 -2 -12 -6 24 -29 108 -67 40 -19 72 -29 70 -22 -12 40
-15 71 -7 62 6 -5 13 -29 17 -53 l7 -42 -78 35 c-152 70 -167 84 -184 182 -7
39 -16 75 -19 80 -3 5 -58 54 -121 110 -63 56 -179 166 -258 245 -143 144
-143 145 -151 201 -7 52 -13 62 -77 129 -39 40 -105 109 -147 154 -42 44 -77
84 -77 88 0 7 84 -79 252 -259z m-653 223 c4 7 32 -9 75 -42 l69 -53 -2 -169
-2 -170 119 -118 120 -118 7 -156 c4 -87 10 -185 14 -219 4 -35 4 -63 1 -63
-4 0 -26 13 -48 30 -61 44 -72 79 -72 229 l0 126 -136 135 c-75 74 -142 149
-150 167 -11 25 -14 82 -13 240 1 114 4 199 6 189 3 -12 8 -15 12 -8z m650
-22 c18 -19 20 -24 7 -29 -10 -4 -13 -1 -10 7 3 7 -2 16 -10 19 -9 4 -16 11
-16 17 0 15 4 13 29 -14z m50 -115 c9 -6 5 -8 -13 -8 -15 0 -29 3 -32 8 -7 11
27 11 45 0z m49 -11 c15 0 15 2 2 10 -8 5 -10 10 -4 10 6 0 19 -9 30 -21 16
-17 16 -22 4 -29 -23 -15 -34 -12 -20 5 7 9 10 18 7 21 -3 3 -13 -6 -22 -20
-17 -25 -45 -30 -62 -11 -5 4 -3 5 4 1 6 -3 15 -1 19 5 4 8 9 7 15 -2 6 -9 7
-1 4 21 -3 19 -3 29 1 23 3 -7 13 -13 22 -13z m67 -51 c-4 -5 0 -9 8 -9 21 0
48 -35 41 -54 -9 -23 -37 -20 -64 9 -22 23 -22 26 -7 43 10 10 14 22 10 27 -5
4 -2 5 5 1 7 -4 10 -12 7 -17z m-30 -7 c-3 -3 -16 -7 -28 -9 -21 -3 -21 -2 -3
12 17 13 45 11 31 -3z m1896 -9 c13 -16 12 -17 -3 -4 -10 7 -18 15 -18 17 0 8
8 3 21 -13z m-90 -40 c13 -16 12 -17 -3 -4 -10 7 -18 15 -18 17 0 8 8 3 21
-13z m-1703 -165 l-3 -53 -12 38 c-6 20 -7 35 -2 31 13 -8 11 10 -3 25 -10 11
-10 13 0 7 8 -5 12 1 12 19 0 20 -4 26 -15 21 -8 -3 -19 3 -25 14 -15 28 -12
33 15 28 18 -4 26 -1 27 11 4 32 9 -91 6 -141z m578 -6 c45 -34 134 -95 198
-137 71 -46 114 -80 110 -87 -4 -7 -3 -8 4 -4 14 8 26 -14 42 -81 l14 -52 125
-30 c69 -16 145 -33 168 -36 31 -5 59 -20 98 -53 52 -44 54 -47 34 -58 -27
-14 -67 -6 -219 40 -171 52 -188 60 -198 98 -9 35 -10 36 -142 95 -116 51
-154 74 -140 83 8 5 7 9 -5 13 -11 5 -14 3 -9 -5 5 -8 2 -9 -11 -4 -32 12
-184 106 -192 119 -4 6 -21 66 -38 133 l-31 122 56 -47 c30 -26 92 -75 136
-109z m-1850 22 c62 -42 264 -215 281 -240 13 -20 15 -63 12 -280 l-4 -257
244 -148 c227 -138 252 -156 353 -256 l109 -107 9 -580 c5 -320 10 -685 10
-813 l0 -232 -60 36 -60 35 -1 232 c0 127 -4 472 -8 766 -6 483 -9 538 -24
561 -27 41 -119 110 -283 213 -346 219 -384 246 -395 272 -5 16 -9 127 -9 267
l1 240 -154 143 c-85 78 -164 145 -175 148 -26 9 -147 -11 -181 -29 -77 -39
-144 -46 -379 -39 -125 4 -234 8 -242 9 -10 1 -15 14 -16 36 0 28 4 35 25 40
14 4 224 7 467 8 l441 1 39 -26z m3594 -15 c421 -1 868 -4 994 -7 l229 -4 -73
-41 -73 -40 -1204 -3 -1203 -3 0 48 c0 26 3 51 8 56 4 4 131 5 282 1 151 -3
619 -7 1040 -7z m-3629 -97 c58 -53 126 -116 152 -140 l47 -42 -1 -243 c0
-133 3 -251 7 -262 7 -18 6 -18 -9 -6 -11 8 -15 21 -11 36 3 13 1 26 -6 30 -8
5 -10 -24 -8 -102 3 -102 4 -108 23 -105 15 2 17 1 6 -6 -11 -8 -9 -11 8 -17
13 -4 25 -4 28 -1 4 3 0 6 -8 6 -11 0 -11 2 1 10 13 9 13 10 0 11 -10 0 -9 3
5 10 18 8 18 8 -5 7 -34 -3 -50 9 -50 38 0 17 6 24 19 24 22 0 23 -27 2 -40
-9 -5 -10 -10 -3 -14 6 -4 15 2 21 11 7 13 10 14 11 4 0 -8 3 -11 6 -8 4 4 1
13 -6 22 -10 12 -10 15 1 15 8 1 3 7 -11 15 -25 14 -25 14 -2 15 25 0 104 -48
97 -60 -3 -4 1 -7 8 -6 16 1 347 -206 347 -218 0 -5 -7 -3 -15 4 -9 8 -15 9
-15 2 0 -6 4 -14 10 -17 18 -11 -12 -43 -37 -39 -18 3 -26 -2 -33 -21 -13 -34
-13 -45 1 -45 6 0 9 7 5 15 -3 8 -1 15 4 15 5 0 7 6 4 13 -3 9 2 13 15 12 25
-2 41 -15 18 -15 -9 0 -17 -4 -17 -9 0 -5 -3 -18 -6 -28 -5 -15 -4 -15 5 -3 9
13 11 13 11 -1 0 -9 9 -19 20 -22 12 -3 20 -14 20 -27 0 -14 5 -20 13 -17 6 2
18 -2 25 -9 10 -12 10 -14 -3 -14 -8 0 -15 -5 -15 -11 0 -5 -5 -7 -10 -4 -6 4
-8 10 -5 15 3 4 -1 10 -9 13 -11 4 -12 0 -3 -23 6 -16 16 -26 21 -22 6 3 5 -1
-2 -10 -7 -8 -10 -22 -7 -30 4 -9 -4 -19 -20 -26 -24 -11 -25 -10 -26 26 -1
20 -2 48 -1 62 0 14 -2 19 -6 10 -3 -9 -10 -1 -18 25 -8 22 -11 29 -9 15 3
-14 15 -74 26 -135 22 -113 31 -136 44 -114 5 8 4 10 -3 5 -17 -11 -15 25 3
51 14 20 14 22 -6 28 -17 6 -19 9 -8 16 10 6 23 -2 43 -24 l29 -31 -5 32 c-2
18 -1 32 3 32 4 0 12 51 17 113 l11 112 -5 -100 c-3 -55 -7 -146 -11 -202 l-6
-102 -37 19 c-20 10 -41 24 -47 32 -6 7 -23 74 -38 148 -16 74 -33 159 -39
189 l-11 53 -193 111 -192 110 0 163 0 163 -69 55 c-64 51 -104 92 -71 71 8
-5 11 -4 6 3 -4 6 -12 9 -19 7 -7 -2 -32 13 -56 34 l-44 39 -5 96 c-2 53 -9
99 -13 102 -5 3 -9 10 -9 17 0 8 3 8 12 -1 7 -7 17 -12 23 -12 5 0 3 5 -5 9
-8 5 -18 8 -22 8 -11 -3 -59 46 -105 108 -44 59 -45 60 -21 66 12 4 48 7 78 8
l55 1 106 -98z m5087 -194 l-2 -143 -6 125 c-7 141 -12 127 -10 -29 1 -128 -3
-136 -146 -246 l-104 -80 1 -120 1 -120 -117 -6 c-95 -6 -121 -10 -136 -25
-10 -11 -101 -125 -203 -254 l-186 -235 -1 -180 c-1 -99 -5 -232 -9 -295 -6
-102 -7 -107 -9 -45 -2 39 -3 73 -3 77 2 12 -27 17 -34 6 -4 -6 -3 -8 3 -5 12
7 23 -14 23 -41 -1 -15 -2 -15 -15 1 -10 15 -18 17 -32 8 -10 -6 -13 -11 -7
-11 7 0 11 -11 10 -25 -1 -18 -5 -24 -16 -20 -8 4 -11 3 -7 -1 4 -4 1 -14 -6
-22 -6 -9 -7 -13 -2 -10 7 4 10 -10 8 -39 -2 -36 0 -43 10 -35 10 8 13 6 13
-8 0 -10 -3 -18 -6 -18 -24 2 -31 -4 -25 -22 4 -11 2 -20 -4 -20 -6 0 -11 -13
-11 -30 0 -16 4 -30 9 -30 4 0 7 12 5 28 -4 27 -3 27 4 2 7 -20 3 -30 -15 -47
-13 -12 -23 -29 -23 -37 0 -9 -6 -13 -14 -10 -7 3 -16 -2 -20 -12 -5 -14 -4
-15 9 -4 9 8 15 9 15 2 0 -6 -8 -16 -17 -21 -10 -6 -13 -11 -7 -11 18 0 25
-40 8 -47 -8 -3 -11 -9 -8 -15 4 -5 11 -5 18 1 9 8 13 7 13 -4 0 -14 -10 -19
-29 -16 -5 0 -8 -6 -8 -15 0 -13 3 -14 15 -4 12 10 16 9 22 -6 3 -11 11 -22
17 -26 6 -5 2 -8 -11 -8 -17 0 -20 5 -16 23 4 20 3 20 -7 4 -15 -24 -21 -57
-9 -57 5 0 9 5 9 10 0 6 6 10 13 10 20 0 16 -26 -6 -39 -11 -8 -16 -8 -12 -2
3 6 1 11 -4 11 -14 0 -14 -17 -1 -25 6 -3 10 -11 10 -16 0 -6 -5 -7 -12 -3 -7
4 -8 3 -4 -4 10 -17 39 -15 33 1 -3 8 -2 20 3 27 6 9 13 7 30 -10 22 -22 22
-23 2 -18 -17 5 -20 2 -16 -18 2 -13 0 -24 -6 -24 -6 0 -9 4 -6 8 3 5 -1 9 -9
9 -21 0 -19 -4 16 -35 29 -26 30 -29 15 -44 -10 -11 -12 -19 -6 -23 8 -5 7
-11 -1 -21 -8 -9 -8 -14 -2 -12 11 3 13 -1 13 -23 0 -8 -4 -8 -14 0 -11 9 -16
9 -22 0 -4 -8 -3 -9 4 -5 8 5 12 -1 12 -14 0 -12 5 -18 10 -15 6 3 10 1 10 -4
0 -6 -5 -11 -11 -11 -5 0 -7 -5 -4 -10 4 -6 11 -7 17 -4 7 4 8 2 4 -4 -4 -6
-12 -10 -19 -8 -7 1 -9 1 -4 -1 4 -3 7 -16 7 -29 0 -13 4 -24 8 -24 4 0 8 -9
9 -19 1 -15 -3 -18 -15 -13 -15 5 -15 4 1 -12 15 -15 16 -21 5 -34 -10 -12
-10 -14 0 -8 9 5 12 -3 12 -29 0 -32 -3 -36 -22 -35 -49 4 -58 0 -58 -26 0
-28 8 -28 87 6 l42 18 3 169 c2 92 5 303 6 468 2 205 6 303 14 310 8 7 9 5 5
-7 -3 -9 -7 -226 -8 -482 l-2 -465 -113 -45 c-63 -26 -116 -46 -119 -46 -9 0
-5 1598 4 1623 5 13 20 35 33 49 38 40 163 143 227 189 l61 43 0 147 0 147 40
35 c23 19 75 49 116 67 l75 33 -2 85 -2 84 41 37 40 36 5 99 6 99 83 84 83 83
182 0 183 0 -2 -142z m-3593 12 c3 -5 1 -10 -4 -10 -6 0 -11 5 -11 10 0 6 2
10 4 10 3 0 8 -4 11 -10z m101 -57 c-7 -7 -21 -4 -21 5 0 4 -4 14 -9 22 -6 9
-1 7 12 -4 12 -11 20 -21 18 -23z m2717 -50 c-24 -2 -62 -2 -85 0 -24 2 -5 4
42 4 47 0 66 -2 43 -4z m-943 -11 c0 -4 -79 -7 -175 -7 -96 0 -175 3 -175 8 0
4 79 7 175 7 96 0 175 -3 175 -8z m733 1 c-18 -2 -48 -2 -65 0 -18 2 -4 4 32
4 36 0 50 -2 33 -4z m-590 -10 c-24 -2 -62 -2 -85 0 -24 2 -5 4 42 4 47 0 66
-2 43 -4z m-1816 -18 c0 -8 -4 -12 -9 -9 -5 3 -6 10 -3 15 9 13 12 11 12 -6z
m1313 11 c0 -2 -8 -10 -17 -17 -16 -13 -17 -12 -4 4 13 16 21 21 21 13z
m-1294 -92 c-3 -9 -6 -20 -6 -25 0 -20 -18 -7 -22 16 -4 20 -1 25 14 25 14 0
18 -5 14 -16z m1134 -37 c0 -2 -10 -12 -22 -23 l-23 -19 19 23 c18 21 26 27
26 19z m1275 -45 c-6 -5 -82 -60 -170 -122 -170 -121 -604 -438 -793 -578
l-112 -83 2 -964 3 -963 -35 -6 c-19 -3 -97 -6 -172 -6 l-138 0 0 983 0 982
178 117 c97 64 353 233 567 375 l390 258 140 6 c77 3 142 6 145 7 2 1 0 -2 -5
-6z m-745 -23 c-8 -5 -161 -88 -340 -183 -420 -223 -610 -331 -828 -467 l-177
-111 -220 6 c-121 3 -238 9 -260 14 l-40 8 95 56 c327 193 635 373 835 489
127 73 253 147 280 165 l50 33 310 0 c205 0 305 -3 295 -10z m-1559 -28 c26
-21 25 -25 -8 -35 -18 -6 -22 -4 -17 7 3 8 0 18 -7 23 -7 4 -10 3 -5 -4 3 -6
2 -13 -3 -16 -16 -10 -24 14 -11 29 16 19 23 19 51 -4z m2609 5 c0 -2 -25 -20
-55 -40 -30 -20 -55 -34 -55 -31 0 4 101 75 107 75 2 0 3 -2 3 -4z m-980 -60
c0 -3 -26 -19 -57 -37 -87 -49 -800 -484 -940 -573 l-123 -77 0 -955 0 -955
-54 6 c-29 4 -68 10 -87 14 l-34 7 -2 954 -3 955 58 31 c328 179 717 380 1027
531 219 107 215 106 215 99z m860 -20 c0 -2 -8 -10 -17 -17 -16 -13 -17 -12
-4 4 13 16 21 21 21 13z m-40 -29 c0 -2 -29 -27 -65 -55 -36 -29 -65 -50 -65
-48 0 5 122 106 127 106 2 0 3 -1 3 -3z m-144 -116 c-3 -5 -70 -61 -148 -126
-79 -65 -134 -108 -123 -96 20 20 267 229 273 230 2 1 1 -3 -2 -8z m-269 -54
c-16 -12 -147 -119 -290 -238 l-262 -215 -3 -942 c-2 -819 0 -942 12 -942 8 0
38 5 66 11 28 6 54 9 56 6 5 -5 -255 -57 -286 -57 -20 0 -20 14 -20 963 l0
964 138 90 c75 50 225 145 332 213 107 67 211 133 230 146 44 29 64 30 27 1z
m1424 -176 c25 -25 53 -41 73 -44 25 -3 24 -4 -9 -4 -22 0 -56 -3 -75 -6 -64
-11 -295 -18 -285 -9 82 72 142 101 207 102 41 0 52 -5 89 -39z m-1451 -14 c0
-2 -12 -14 -27 -28 l-28 -24 24 28 c23 25 31 32 31 24z m1813 -24 c9 -9 17
-21 17 -26 0 -6 -6 -2 -14 8 -8 11 -29 25 -47 32 -33 13 -33 13 -4 7 17 -3 38
-13 48 -21z m-1873 -27 c0 -2 -44 -41 -97 -86 l-98 -82 -5 -597 -5 -596 -3
595 -2 596 103 86 c103 88 107 91 107 84z m1559 -22 c9 -8 -45 -2 -64 6 -14 7
-8 8 20 3 22 -3 42 -7 44 -9z m-4692 -56 c-3 -8 -6 -5 -6 6 -1 11 2 17 5 13 3
-3 4 -12 1 -19z m4592 5 c0 -5 -4 -17 -9 -28 -7 -17 -9 -17 -9 -2 -1 9 -9 17
-18 17 -15 0 -16 -2 -3 -10 18 -11 23 -6 -76 -72 -121 -81 -261 -197 -273
-227 -6 -14 -20 -82 -33 -151 -12 -69 -24 -117 -26 -108 -2 10 6 64 18 121 11
57 18 111 15 119 -6 16 16 44 73 90 31 26 33 31 37 112 2 47 7 98 10 113 5 20
3 24 -3 13 -5 -8 -15 -57 -20 -109 l-11 -93 -54 -57 c-73 -76 -83 -99 -101
-230 -22 -152 -15 -141 -151 -246 -38 -30 -85 -67 -102 -83 l-33 -28 0 -380 0
-379 -48 -27 -49 -27 -6 226 c-4 124 -7 312 -7 416 0 177 1 193 21 221 12 17
76 68 144 113 l122 81 7 102 c9 127 30 174 115 253 34 31 61 64 61 73 0 10 5
57 11 106 l12 88 193 0 c107 0 194 -3 193 -7z m-3702 -155 c-3 -8 -6 -5 -6 6
-1 11 2 17 5 13 3 -3 4 -12 1 -19z m3273 -208 c-6 -11 -13 -20 -16 -20 -2 0 0
9 6 20 6 11 13 20 16 20 2 0 0 -9 -6 -20z m-23 -77 c-3 -10 -5 -2 -5 17 0 19
2 27 5 18 2 -10 2 -26 0 -35z m-10 -60 c-3 -10 -5 -4 -5 12 0 17 2 24 5 18 2
-7 2 -21 0 -30z m-3970 -361 c-1 -53 -3 -7 -3 103 0 110 2 154 3 97 2 -57 2
-147 0 -200z m3333 158 c0 -5 -5 -10 -11 -10 -5 0 -7 5 -4 10 3 6 8 10 11 10
2 0 4 -4 4 -10z m-3 -46 c-3 -3 -12 -4 -19 -1 -8 3 -5 6 6 6 11 1 17 -2 13 -5z
m0 -136 c-3 -8 -6 -5 -6 6 -1 11 2 17 5 13 3 -3 4 -12 1 -19z m-63 -123 c-5
-11 -1 -14 12 -9 16 5 16 4 4 -5 -17 -12 -36 1 -26 18 10 16 16 13 10 -4z
m-15 -63 c-5 -2 -4 -12 1 -23 8 -13 7 -19 0 -19 -17 0 -28 43 -16 62 10 17 11
17 17 0 3 -9 2 -18 -2 -20z m28 -24 c-3 -8 -6 -5 -6 6 -1 11 2 17 5 13 3 -3 4
-12 1 -19z m6 -142 c4 -10 1 -13 -8 -9 -8 3 -12 9 -9 14 7 12 11 11 17 -5z m4
-91 c0 -8 -4 -15 -9 -15 -10 0 -11 14 -1 23 9 10 10 9 10 -8z m-3280 -177 c-2
-13 -4 -5 -4 17 -1 22 1 32 4 23 2 -10 2 -28 0 -40z m3298 -60 c-3 -8 -13 -15
-22 -15 -14 0 -14 2 -1 11 8 6 13 18 10 26 -3 11 -1 12 7 4 6 -6 9 -17 6 -26z
m-3195 -14 c0 -2 -9 0 -20 6 -11 6 -20 13 -20 16 0 2 9 0 20 -6 11 -6 20 -13
20 -16z m3207 -26 c-3 -7 -5 -2 -5 12 0 14 2 19 5 13 2 -7 2 -19 0 -25z m-2
-20 c6 -4 0 -8 -12 -8 -16 0 -21 4 -16 15 3 9 8 12 12 8 3 -4 11 -11 16 -15z
m-15 -40 c0 -10 3 -9 9 1 6 9 8 4 8 -16 -1 -17 -7 -30 -14 -30 -7 0 -13 4 -13
9 0 4 5 8 11 8 6 0 3 7 -5 16 -19 18 -20 24 -6 24 6 0 10 -6 10 -12z m-65
-108 c-3 -5 -12 -10 -18 -10 -7 0 -6 4 3 10 19 12 23 12 15 0z m-2430 -106
c24 -11 25 -13 5 -8 -14 4 -38 13 -55 20 -24 11 -25 13 -5 8 14 -4 39 -13 55
-20z m1952 -16 c-3 -7 -5 -2 -5 12 0 14 2 19 5 13 2 -7 2 -19 0 -25z m-1882
-8 c13 -6 15 -9 5 -9 -8 0 -22 4 -30 9 -18 12 -2 12 25 0z m75 -25 c19 -7 28
-14 20 -14 -8 0 -28 6 -45 14 -39 17 -21 18 25 0z m1807 -17 c-3 -8 -6 -5 -6
6 -1 11 2 17 5 13 3 -3 4 -12 1 -19z m-1710 -14 c-3 -3 -12 -4 -19 -1 -8 3 -5
6 6 6 11 1 17 -2 13 -5z m98 -24 c39 -11 54 -18 34 -15 -39 6 -130 33 -114 34
6 0 42 -8 80 -19z m1600 0 c-11 -5 -29 -8 -40 -8 -16 0 -15 2 5 8 34 11 60 11
35 0z m-68 -16 c-3 -3 -12 -4 -19 -1 -8 3 -5 6 6 6 11 1 17 -2 13 -5z m-1424
-11 c-7 -2 -19 -2 -25 0 -7 3 -2 5 12 5 14 0 19 -2 13 -5z m50 -10 c-7 -2 -19
-2 -25 0 -7 3 -2 5 12 5 14 0 19 -2 13 -5z m295 -40 c-10 -2 -26 -2 -35 0 -10
3 -2 5 17 5 19 0 27 -2 18 -5z m719 1 c-3 -3 -12 -4 -19 -1 -8 3 -5 6 6 6 11
1 17 -2 13 -5z m-590 -11 c-20 -2 -52 -2 -70 0 -17 2 0 4 38 4 39 0 53 -2 32
-4z m151 -10 c-16 -2 -40 -2 -55 0 -16 2 -3 4 27 4 30 0 43 -2 28 -4z"/>
<path d="M4420 8308 l0 -146 43 5 c23 3 47 8 53 12 8 4 -6 50 -42 141 l-53
135 -1 -147z"/>
<path d="M6281 8287 l-39 -122 24 -13 c13 -7 43 -15 67 -18 40 -6 46 -4 70 25
14 17 34 56 43 86 25 80 8 109 -88 149 l-37 16 -40 -123z"/>
<path d="M3595 8293 c-22 -9 -41 -17 -43 -18 -2 -2 77 -171 105 -223 5 -10
107 56 115 74 14 30 -15 114 -52 154 -32 34 -63 38 -125 13z"/>
<path d="M6989 8057 c-48 -32 -131 -146 -189 -260 -65 -128 -66 -165 0 -210
42 -29 76 -22 128 27 54 51 167 232 194 311 16 49 17 59 4 89 -14 33 -58 66
-89 66 -8 0 -29 -10 -48 -23z"/>
<path d="M7615 7573 c-78 -42 -252 -225 -290 -305 -16 -33 -16 -37 -1 -70 10
-20 32 -44 51 -54 32 -17 37 -17 67 -2 75 36 291 264 308 327 12 42 -8 84 -50
106 -36 19 -47 18 -85 -2z"/>
<path d="M4962 7028 c-7 -7 -12 -39 -12 -75 l0 -62 -97 -4 -98 -3 103 -2 102
-2 0 70 c0 64 2 72 23 80 13 5 16 9 7 9 -9 1 -21 -4 -28 -11z"/>
<path d="M5043 7023 l37 -4 0 -75 0 -74 38 2 c36 1 36 1 5 5 l-32 4 -3 72 -3
72 -40 1 -40 1 38 -4z"/>
<path d="M5165 7019 c-13 -5 1 -8 43 -8 l64 -1 -4 -75 -3 -75 35 -6 c69 -13
129 -54 158 -109 8 -16 19 -59 22 -95 l7 -65 2 53 c3 110 -69 199 -181 226
-27 6 -28 8 -28 77 0 47 -4 71 -12 73 -32 10 -85 13 -103 5z"/>
<path d="M5143 6950 c0 -30 2 -43 4 -27 2 15 2 39 0 55 -2 15 -4 2 -4 -28z"/>
<path d="M4754 6795 l1 -70 43 -6 c23 -3 47 -10 53 -16 7 -7 8 -87 3 -253 -7
-235 -8 -242 -29 -250 -11 -4 -34 -6 -51 -4 -27 4 -27 3 4 -7 27 -8 39 -7 58
6 22 14 24 22 24 88 0 39 3 149 6 242 3 101 2 176 -4 184 -5 7 -30 16 -55 18
l-46 6 -4 66 -3 66 0 -70z"/>
<path d="M5060 6634 l0 -90 78 -1 c42 0 59 1 37 3 -22 2 -55 7 -73 10 l-33 5
3 72 3 72 80 -3 c95 -4 125 -19 125 -63 0 -39 -16 -68 -43 -79 -16 -6 -18 -9
-5 -9 24 -1 58 47 58 83 0 58 -26 73 -144 82 l-86 7 0 -89z"/>
<path d="M5467 6558 c-4 -14 -19 -41 -34 -59 -22 -26 -25 -33 -13 -37 26 -9
78 -71 90 -108 16 -47 8 -159 -13 -201 -41 -79 -127 -132 -214 -133 l-52 0 -3
-67 -3 -68 -55 -6 -55 -6 51 -1 c28 -1 55 3 62 10 7 7 12 38 12 70 l0 58 48 0
c26 0 67 10 92 21 93 42 140 113 148 222 6 85 -15 142 -69 191 -21 20 -35 36
-31 36 12 0 54 79 49 93 -2 6 -7 0 -10 -15z"/>
<path d="M5050 6284 l0 -106 116 4 c113 3 116 4 140 31 25 30 32 83 14 116
-10 20 -67 47 -77 37 -3 -3 1 -6 9 -6 32 0 68 -40 68 -75 0 -77 -31 -95 -165
-95 l-95 0 0 64 c0 98 8 124 39 129 19 3 17 4 -11 6 l-38 1 0 -106z"/>
<path d="M5153 6373 c15 -2 39 -2 55 0 15 2 2 4 -28 4 -30 0 -43 -2 -27 -4z"/>
<path d="M4727 6118 c-3 -36 -1 -68 4 -75 11 -12 169 -23 169 -11 0 4 -37 8
-82 10 l-83 3 3 68 c5 84 -3 88 -11 5z"/>
<path d="M4914 5963 l1 -78 59 -3 c70 -4 76 2 76 74 0 57 3 64 30 57 16 -4 20
-16 23 -67 l3 -61 2 70 2 70 -35 2 -34 3 -3 -68 -3 -67 -57 -3 -57 -3 -4 76
-3 75 0 -77z"/>
<path d="M8682 6613 c-7 -2 -16 -12 -21 -22 -8 -13 -5 -17 12 -18 12 0 16 1
10 4 -7 3 -13 9 -13 15 0 6 7 7 16 4 8 -3 13 -2 9 3 -3 5 1 12 7 14 7 3 9 5 3
5 -5 0 -16 -2 -23 -5z"/>
<path d="M1602 6355 c0 -16 2 -22 5 -12 2 9 2 23 0 30 -3 6 -5 -1 -5 -18z"/>
<path d="M1931 5887 c-1 -14 -6 -17 -23 -12 -21 5 -21 5 -5 -6 22 -13 43 1 34
23 -4 8 -6 7 -6 -5z"/>
<path d="M2054 5891 c5 -8 -29 -25 -46 -22 -12 2 -9 -17 4 -25 6 -4 17 1 25
11 12 17 18 14 14 -7 0 -5 4 -8 10 -8 6 0 8 9 4 20 -5 14 -2 20 10 20 9 0 13
5 10 10 -3 6 -13 10 -21 10 -8 0 -13 -4 -10 -9z"/>
<path d="M2200 5850 c0 -5 9 -8 20 -7 21 1 18 10 -5 13 -8 1 -15 -2 -15 -6z"/>
<path d="M1995 5830 c-4 -6 3 -10 14 -10 25 0 27 6 6 13 -8 4 -17 2 -20 -3z"/>
<path d="M2040 5821 c0 -5 9 -11 21 -14 16 -4 18 -3 8 9 -13 16 -29 19 -29 5z"/>
<path d="M2051 5753 c1 -28 4 -37 6 -23 3 14 9 30 13 35 4 6 2 16 -6 23 -12
11 -14 5 -13 -35z"/>
<path d="M2053 5665 c0 -22 2 -30 4 -17 2 12 2 30 0 40 -3 9 -5 -1 -4 -23z"/>
<path d="M2184 5636 c2 -15 6 -29 9 -32 3 -4 5 6 3 20 -1 14 -5 29 -9 32 -3 3
-4 -6 -3 -20z"/>
<path d="M2052 5514 c-2 -111 -2 -112 22 -116 16 -3 30 2 41 14 18 21 20 21
-45 0 -8 -2 -5 3 8 12 12 10 22 27 22 39 -1 22 -1 22 -16 2 l-16 -20 4 20 c2
11 8 23 13 27 6 5 4 8 -5 8 -11 1 -10 4 5 17 14 11 15 14 3 10 -20 -7 -30 23
-15 48 6 12 6 16 -1 11 -6 -3 -12 4 -14 16 -3 13 -5 -27 -6 -88z"/>
<path d="M2439 5409 c-10 -6 -7 -9 14 -9 29 0 35 5 14 13 -8 3 -20 1 -28 -4z"/>
<path d="M2120 5400 c0 -6 7 -10 15 -10 8 0 15 2 15 4 0 2 -7 6 -15 10 -8 3
-15 1 -15 -4z"/>
<path d="M2218 5393 c7 -3 16 -2 19 1 4 3 -2 6 -13 5 -11 0 -14 -3 -6 -6z"/>
<path d="M2283 5393 c9 -2 23 -2 30 0 6 3 -1 5 -18 5 -16 0 -22 -2 -12 -5z"/>
<path d="M8023 5720 c0 -25 2 -35 4 -22 2 12 2 32 0 45 -2 12 -4 2 -4 -23z"/>
<path d="M7780 5369 c0 -5 -5 -7 -12 -3 -7 4 -8 3 -4 -4 4 -6 13 -9 21 -5 17
6 20 23 5 23 -5 0 -10 -5 -10 -11z"/>
<path d="M7835 5371 c-3 -5 -2 -12 3 -15 5 -3 9 1 9 9 0 17 -3 19 -12 6z"/>
<path d="M7837 5320 c3 -11 7 -20 9 -20 2 0 4 9 4 20 0 11 -4 20 -9 20 -5 0
-7 -9 -4 -20z"/>
<path d="M7833 5283 c-7 -3 -13 -9 -13 -14 0 -6 4 -8 9 -5 5 3 8 -13 7 -37 -1
-23 -6 -41 -12 -40 -6 1 -11 -4 -11 -12 0 -8 5 -11 10 -8 6 4 7 1 2 -7 -6 -10
-11 -10 -20 3 -7 10 -16 17 -20 17 -4 0 -2 -6 4 -14 8 -10 9 -16 1 -21 -5 -3
-10 -1 -10 4 0 6 -5 11 -10 11 -6 0 -5 -8 2 -20 7 -11 14 -16 16 -10 2 5 10
10 18 10 10 0 12 -5 8 -12 -6 -10 -5 -10 7 -1 14 11 16 7 15 -30 -1 -31 -6
-44 -20 -50 -14 -5 -16 -10 -7 -21 6 -7 8 -16 4 -20 -4 -4 1 -4 12 0 20 8 20
8 1 -21 -15 -23 -15 -27 -3 -17 14 12 16 9 20 -30 2 -24 4 13 5 82 1 69 -2
132 -8 140 -5 9 -5 19 1 26 15 18 7 102 -8 97z m7 -247 c0 -11 -19 -15 -25 -6
-3 5 1 10 9 10 9 0 16 -2 16 -4z"/>
<path d="M7805 5240 c3 -5 8 -10 11 -10 2 0 4 5 4 10 0 6 -5 10 -11 10 -5 0
-7 -4 -4 -10z"/>
<path d="M7800 5095 c0 -8 4 -15 10 -15 5 0 7 7 4 15 -4 8 -8 15 -10 15 -2 0
-4 -7 -4 -15z"/>
<path d="M7496 5018 c5 -8 1 -9 -12 -4 -14 5 -16 4 -7 -5 6 -6 16 -8 22 -5 14
9 14 26 0 26 -5 0 -7 -5 -3 -12z"/>
<path d="M7568 4953 c7 -3 16 -2 19 1 4 3 -2 6 -13 5 -11 0 -14 -3 -6 -6z"/>
<path d="M7600 4929 c0 -22 4 -27 16 -22 11 4 12 8 4 13 -7 4 -10 14 -8 21 3
10 12 5 32 -14 15 -15 26 -21 24 -13 -3 14 0 16 25 16 8 0 7 -4 -3 -10 -11 -8
-5 -10 25 -8 35 3 40 6 42 28 2 23 2 23 -6 5 -8 -17 -10 -17 -10 -3 -1 13 -8
17 -26 16 -14 -1 -25 -7 -25 -13 0 -6 -3 -6 -8 1 -4 6 -24 11 -44 11 -35 0
-38 -3 -38 -28z m70 17 c0 -3 -4 -8 -10 -11 -5 -3 -10 -1 -10 4 0 6 5 11 10
11 6 0 10 -2 10 -4z"/>
<path d="M7543 4927 c0 -7 10 -13 22 -13 12 0 22 6 22 13 0 9 -4 10 -14 2 -9
-8 -13 -8 -13 0 0 6 -4 11 -8 11 -5 0 -9 -6 -9 -13z"/>
<path d="M5705 5621 c-3 -5 -2 -12 3 -15 5 -3 9 1 9 9 0 17 -3 19 -12 6z"/>
<path d="M5910 5521 c0 -5 7 -12 16 -15 14 -5 15 -4 4 9 -14 17 -20 19 -20 6z"/>
<path d="M5970 5465 c13 -14 26 -25 28 -25 3 0 -5 11 -18 25 -13 14 -26 25
-28 25 -3 0 5 -11 18 -25z"/>
<path d="M5890 5449 c0 -5 5 -7 10 -4 6 3 10 8 10 11 0 2 -4 4 -10 4 -5 0 -10
-5 -10 -11z"/>
<path d="M5945 5450 c-3 -5 -1 -10 4 -10 6 0 11 5 11 10 0 6 -2 10 -4 10 -3 0
-8 -4 -11 -10z"/>
<path d="M5969 5428 c-1 -7 -1 -19 0 -27 2 -8 -3 -10 -11 -5 -7 4 -10 4 -6 -1
4 -4 2 -15 -4 -24 -7 -9 -1 -6 14 7 17 15 24 30 21 43 -6 22 -12 25 -14 7z"/>
<path d="M5843 5345 c0 -8 9 -23 19 -32 18 -16 20 -16 36 2 16 18 16 18 -1 5
-15 -11 -20 -11 -35 3 -11 12 -12 17 -4 17 7 0 10 5 7 10 -9 15 -22 12 -22 -5z"/>
<path d="M7000 5492 c-66 -42 -176 -150 -204 -199 -6 -11 8 -39 49 -100 l58
-85 124 124 c160 158 189 194 173 213 -13 16 -50 16 -47 0 1 -5 -5 -9 -15 -7
-17 3 -19 -13 -5 -35 5 -7 4 -13 -2 -13 -5 0 -11 -12 -13 -27 -2 -16 -7 -26
-13 -23 -5 3 -9 8 -8 11 1 4 -7 4 -19 1 -16 -4 -19 -2 -13 8 5 9 4 11 -4 6 -6
-4 -9 -11 -6 -16 3 -4 -7 -11 -22 -15 -17 -4 -29 -2 -34 7 -6 8 -9 0 -9 -22 0
-25 -3 -31 -9 -20 -6 8 -7 18 -5 22 3 4 0 8 -5 8 -6 0 -11 -8 -12 -17 0 -12
-2 -13 -6 -5 -4 9 -8 10 -18 2 -10 -8 -15 -8 -21 1 -4 8 -3 9 4 5 7 -4 12 0
12 10 0 10 -3 14 -6 11 -4 -3 -15 -2 -26 4 -15 8 -19 7 -17 -3 3 -25 -1 -38
-12 -38 -5 0 -7 5 -4 10 4 6 -10 1 -31 -10 l-37 -21 44 51 c24 28 51 61 59 73
8 11 55 47 103 79 49 32 85 58 81 58 -5 0 -43 -22 -84 -48z m63 -179 c-3 -7
-6 -13 -8 -13 -2 0 -5 6 -8 13 -3 8 1 14 8 14 7 0 11 -6 8 -14z"/>
<path d="M7135 5490 c10 -11 20 -20 23 -20 3 0 -3 9 -13 20 -10 11 -20 20 -23
20 -3 0 3 -9 13 -20z"/>
<path d="M4392 5514 c-18 -25 -30 -49 -27 -54 3 -5 0 -12 -6 -16 -8 -5 -9 -3
-4 6 5 9 4 11 -3 6 -7 -4 -12 -12 -12 -17 0 -6 -10 -20 -22 -31 -13 -11 -17
-17 -10 -13 6 3 12 1 12 -4 0 -6 -7 -11 -15 -11 -13 0 -14 -4 -5 -20 6 -11 7
-20 3 -20 -4 0 -2 -5 5 -12 23 -23 14 -40 -18 -34 -16 2 -30 3 -30 1 0 -5 256
-225 295 -253 l31 -23 77 42 c42 23 77 46 77 50 0 20 -152 229 -162 223 -7 -4
-8 -2 -4 4 4 7 -7 32 -24 57 -25 37 -37 45 -61 45 -28 0 -29 1 -15 16 21 20
20 24 -7 57 l-22 29 -20 -24 -20 -23 22 18 c21 18 22 18 33 -2 7 -14 7 -21 0
-21 -5 0 -10 6 -10 13 0 8 -3 8 -8 2 -11 -16 -37 -11 -34 5 2 8 11 23 19 33 9
9 12 17 6 17 -5 0 -24 -21 -41 -46z m3 -34 c3 -5 1 -10 -4 -10 -6 0 -11 5 -11
10 0 6 2 10 4 10 3 0 8 -4 11 -10z m45 -10 c8 -5 11 -10 5 -10 -5 0 -17 5 -25
10 -8 5 -10 10 -5 10 6 0 17 -5 25 -10z m-35 -20 c3 -5 1 -10 -4 -10 -6 0 -11
5 -11 10 0 6 2 10 4 10 3 0 8 -4 11 -10z m70 -20 c9 0 12 -8 10 -21 -6 -28 -6
-28 -35 -12 -14 7 -19 13 -12 13 6 0 12 5 12 11 0 6 -9 8 -22 4 -18 -5 -20 -4
-8 4 8 6 21 9 28 6 8 -3 20 -5 27 -5z m-51 -35 c3 -8 1 -15 -4 -15 -6 0 -10 7
-10 15 0 8 2 15 4 15 2 0 6 -7 10 -15z m-78 -45 c0 -13 -7 -20 -20 -20 -18 0
-19 1 -1 20 10 11 19 20 19 20 1 0 2 -9 2 -20z m69 -8 c-3 -3 -11 0 -18 7 -9
10 -8 11 6 5 10 -3 15 -9 12 -12z m75 8 c0 -5 -7 -7 -15 -4 -8 4 -15 8 -15 10
0 2 7 4 15 4 8 0 15 -4 15 -10z m-69 -43 c-10 -9 -11 -8 -5 6 3 10 9 15 12 12
3 -3 0 -11 -7 -18z m69 13 c-8 -5 -19 -10 -25 -10 -5 0 -3 5 5 10 8 5 20 10
25 10 6 0 3 -5 -5 -10z m49 -44 c-11 -12 -15 -8 -23 28 l-7 30 20 -25 c12 -14
16 -28 10 -33z m41 23 c11 -19 10 -20 -10 -9 -11 6 -18 15 -15 21 9 13 13 11
25 -12z m-267 -23 c3 3 11 -4 17 -17 l12 -22 -31 22 c-17 12 -31 25 -31 28 0
3 6 0 13 -6 8 -6 16 -8 20 -5z m298 -9 c-10 -9 -11 -8 -5 6 3 10 9 15 12 12 3
-3 0 -11 -7 -18z m97 -164 c-13 -16 -22 -17 -12 -2 4 8 -1 9 -17 4 -18 -4 -20
-4 -10 4 22 15 53 10 39 -6z"/>
<path d="M4490 5460 c0 -5 5 -10 11 -10 5 0 7 5 4 10 -3 6 -8 10 -11 10 -2 0
-4 -4 -4 -10z"/>
<path d="M4290 5310 c0 -5 5 -10 10 -10 6 0 10 5 10 10 0 6 -4 10 -10 10 -5 0
-10 -4 -10 -10z"/>
<path d="M4849 5446 c13 -13 29 -23 37 -22 28 4 23 13 -17 29 l-42 17 22 -24z"/>
<path d="M4930 5405 c-10 -12 -16 -13 -29 -3 -9 7 -3 -2 13 -20 31 -34 50 -40
62 -20 4 7 3 8 -4 4 -7 -4 -12 -2 -12 4 0 6 -4 9 -8 6 -4 -2 -14 0 -22 6 -12
8 -12 9 2 4 20 -6 35 11 21 25 -6 6 -15 4 -23 -6z"/>
<path d="M2585 5269 c-4 -6 -5 -12 -2 -15 2 -3 7 2 10 11 7 17 1 20 -8 4z"/>
<path d="M2583 5202 c1 -14 5 -18 11 -12 7 7 6 14 -1 21 -9 9 -12 7 -10 -9z"/>
<path d="M2578 5046 c-3 -115 -1 -136 13 -136 6 0 8 10 4 23 -5 19 -4 20 5 5
6 -10 18 -18 25 -18 19 0 19 5 -2 38 -15 23 -15 25 -1 14 13 -10 17 -10 22 4
8 22 8 26 -4 19 -20 -12 -31 7 -13 22 10 8 12 12 6 8 -15 -7 -18 11 -3 20 6 4
8 11 5 16 -3 5 1 6 9 3 9 -3 13 -10 10 -15 -3 -5 3 -9 13 -9 14 1 12 6 -12 25
-33 27 -45 31 -45 14 0 -5 -5 -7 -11 -4 -6 5 -4 12 8 22 10 8 12 11 4 7 -11
-5 -13 -2 -9 14 4 12 0 23 -7 26 -11 4 -14 -18 -17 -98z m32 -1 c0 -8 -4 -15
-10 -15 -5 0 -7 7 -4 15 4 8 8 15 10 15 2 0 4 -7 4 -15z"/>
<path d="M2623 5135 c0 -8 4 -12 9 -9 5 3 6 10 3 15 -9 13 -12 11 -12 -6z"/>
<path d="M2650 4908 c-12 -8 -12 -9 2 -5 9 3 19 1 22 -6 3 -9 5 -9 5 0 1 18
-13 23 -29 11z"/>
<path d="M2590 4895 c0 -1 15 -14 32 -31 18 -16 25 -19 15 -7 -18 20 -18 21 0
25 11 3 6 6 -14 9 -18 3 -33 5 -33 4z"/>
<path d="M2700 4785 c19 -19 36 -35 39 -35 3 0 -10 16 -29 35 -19 19 -36 35
-39 35 -3 0 10 -16 29 -35z"/>
<path d="M2800 4687 c0 -2 15 -16 33 -33 l32 -29 -29 33 c-28 30 -36 37 -36
29z"/>
<path d="M2871 4478 c0 -78 4 -125 8 -113 5 11 7 23 4 28 -3 6 32 11 58 9 3
-1 3 12 1 29 -2 16 -8 29 -12 29 -4 0 -5 -11 -2 -25 3 -19 0 -25 -13 -25 -13
0 -16 6 -12 27 5 27 5 27 -10 8 -16 -20 -16 -20 -8 0 4 11 8 25 9 30 1 6 5 16
9 22 6 9 3 11 -7 7 -11 -4 -16 0 -16 10 0 13 6 15 28 10 15 -4 23 -3 19 2 -8
9 -12 10 -38 13 -7 1 -10 15 -7 36 2 19 0 35 -4 35 -4 0 -8 -60 -7 -132z"/>
<path d="M2916 4485 c-3 -8 -1 -15 4 -15 6 0 10 7 10 15 0 8 -2 15 -4 15 -2 0
-6 -7 -10 -15z"/>
<path d="M2931 4354 c0 -11 3 -14 6 -6 3 7 2 16 -1 19 -3 4 -6 -2 -5 -13z"/>
<path d="M2890 4324 c0 -20 17 -26 24 -8 8 21 8 21 -9 21 -8 0 -15 -6 -15 -13z"/>
<path d="M2950 4340 c-1 -3 -3 -16 -6 -30 -3 -21 -2 -22 7 -7 6 10 8 23 5 30
-2 7 -5 10 -6 7z"/>
<path d="M2930 4265 c19 -14 36 -25 39 -25 10 0 -53 49 -63 50 -6 0 5 -11 24
-25z"/>
<path d="M3392 5096 c8 -6 13 -17 11 -23 -3 -7 0 -13 5 -13 6 0 9 8 7 18 -2 9
-4 20 -4 23 -1 3 -8 6 -17 6 -14 0 -15 -2 -2 -11z"/>
<path d="M3902 4935 c0 -31 13 -71 20 -60 3 6 0 26 -8 45 -7 21 -12 27 -12 15z"/>
<path d="M3930 4816 c0 -2 8 -10 18 -17 15 -13 16 -12 3 4 -13 16 -21 21 -21
13z"/>
<path d="M4080 4716 c0 -2 7 -7 16 -10 8 -3 12 -2 9 4 -6 10 -25 14 -25 6z"/>
<path d="M4371 4614 c0 -11 3 -14 6 -6 3 7 2 16 -1 19 -3 4 -6 -2 -5 -13z"/>
<path d="M4600 4888 c0 -5 20 -8 45 -8 25 0 45 4 45 8 0 5 -20 8 -45 8 -25 -1
-45 -4 -45 -8z"/>
<path d="M4700 4896 c0 -2 7 -7 16 -10 8 -3 12 -2 9 4 -6 10 -25 14 -25 6z"/>
<path d="M4766 4892 c-3 -5 1 -9 9 -9 8 0 12 4 9 9 -3 4 -7 8 -9 8 -2 0 -6 -4
-9 -8z"/>
<path d="M4868 4893 c34 -2 90 -2 125 0 34 2 6 3 -63 3 -69 0 -97 -1 -62 -3z"/>
<path d="M5108 4893 c12 -2 32 -2 45 0 12 2 2 4 -23 4 -25 0 -35 -2 -22 -4z"/>
<path d="M5184 4891 c5 -7 96 -4 104 4 2 2 -21 4 -52 4 -31 0 -54 -4 -52 -8z"/>
<path d="M5357 4893 c18 -2 50 -2 70 0 21 2 7 4 -32 4 -38 0 -55 -2 -38 -4z"/>
<path d="M5481 4896 c7 -7 138 -10 145 -4 2 3 -30 6 -72 7 -43 1 -76 -1 -73
-3z"/>
<path d="M5648 4893 c6 -2 18 -2 25 0 6 3 1 5 -13 5 -14 0 -19 -2 -12 -5z"/>
<path d="M5798 4893 c7 -3 16 -2 19 1 4 3 -2 6 -13 5 -11 0 -14 -3 -6 -6z"/>
<path d="M6588 4883 c7 -3 16 -2 19 1 4 3 -2 6 -13 5 -11 0 -14 -3 -6 -6z"/>
<path d="M6628 4883 c6 -2 18 -2 25 0 6 3 1 5 -13 5 -14 0 -19 -2 -12 -5z"/>
<path d="M4628 4833 c6 -2 18 -2 25 0 6 3 1 5 -13 5 -14 0 -19 -2 -12 -5z"/>
<path d="M5848 4833 c7 -3 16 -2 19 1 4 3 -2 6 -13 5 -11 0 -14 -3 -6 -6z"/>
<path d="M5928 4833 c6 -2 18 -2 25 0 6 3 1 5 -13 5 -14 0 -19 -2 -12 -5z"/>
<path d="M6368 4833 c7 -3 16 -2 19 1 4 3 -2 6 -13 5 -11 0 -14 -3 -6 -6z"/>
<path d="M1990 4796 c0 -2 7 -9 15 -16 13 -11 14 -10 9 4 -5 14 -24 23 -24 12z"/>
<path d="M2121 4477 c2 -2 12 -9 22 -16 14 -11 17 -11 17 1 0 7 -10 14 -21 15
-12 1 -20 1 -18 0z"/>
<path d="M2207 4467 c-3 -8 1 -14 9 -14 16 0 19 13 5 21 -5 3 -11 0 -14 -7z"/>
<path d="M2197 4426 c-8 -20 19 -28 34 -10 10 12 9 13 -6 8 -13 -5 -16 -4 -11
4 4 7 3 12 -2 12 -6 0 -12 -6 -15 -14z"/>
<path d="M2269 4400 c-1 -5 -2 -16 -3 -22 -1 -7 9 -25 22 -40 20 -22 29 -25
43 -17 20 10 26 39 9 39 -5 0 -10 8 -10 18 0 14 2 15 10 2 6 -9 10 -10 10 -3
0 17 -17 25 -26 12 -5 -9 -10 -8 -18 2 -14 17 -36 23 -37 9z m28 -35 c0 -8 -4
-12 -9 -9 -5 3 -6 10 -3 15 9 13 12 11 12 -6z"/>
<path d="M2331 4250 c-1 -28 2 -50 7 -50 10 0 10 85 1 95 -3 3 -6 -18 -8 -45z"/>
<path d="M2451 3986 c-8 -10 -9 -16 -1 -21 5 -3 10 -5 11 -3 4 18 7 38 4 38
-1 0 -8 -6 -14 -14z"/>
<path d="M2498 3991 c8 -4 13 -11 13 -15 -1 -15 12 -35 20 -30 5 3 7 10 4 15
-3 5 2 6 12 3 10 -3 3 3 -15 15 -18 12 -36 21 -40 21 -4 0 -1 -4 6 -9z"/>
<path d="M2425 3953 c2 -10 4 -21 4 -24 1 -3 19 -15 41 -28 l40 -22 -23 34
c-16 25 -25 32 -34 25 -13 -10 -14 -9 -17 11 0 5 -4 12 -8 16 -3 4 -5 -1 -3
-12z m45 -33 c0 -5 -2 -10 -4 -10 -3 0 -8 5 -11 10 -3 6 -1 10 4 10 6 0 11 -4
11 -10z"/>
<path d="M2490 3950 c-13 -8 -12 -10 3 -10 9 0 17 5 17 10 0 12 -1 12 -20 0z"/>
<path d="M2535 3933 c-7 -21 -6 -25 5 -18 6 3 10 -1 10 -9 0 -8 4 -17 9 -20 4
-3 8 9 7 28 -1 33 -20 45 -31 19z"/>
<path d="M2490 3926 c0 -2 7 -6 15 -10 8 -3 15 -1 15 4 0 6 -7 10 -15 10 -8 0
-15 -2 -15 -4z"/>
<path d="M2586 3922 c-3 -5 1 -9 9 -9 8 0 12 4 9 9 -3 4 -7 8 -9 8 -2 0 -6 -4
-9 -8z"/>
<path d="M2520 3884 c0 -8 5 -12 10 -9 6 4 8 11 5 16 -9 14 -15 11 -15 -7z"/>
<path d="M2585 3890 c-3 -6 1 -7 9 -4 18 7 21 14 7 14 -6 0 -13 -4 -16 -10z"/>
<path d="M2665 3880 c-3 -5 1 -10 10 -10 9 0 13 5 10 10 -3 6 -8 10 -10 10 -2
0 -7 -4 -10 -10z"/>
<path d="M2540 3866 c0 -2 21 -17 48 -32 26 -15 65 -39 87 -53 39 -24 72 -28
120 -14 19 6 18 6 -3 14 -14 5 -31 5 -42 -1 -26 -14 -29 -13 -25 8 1 9 -2 22
-6 28 -6 8 -3 11 11 10 11 0 19 4 19 9 -1 6 -6 9 -11 7 -6 -1 -17 3 -26 10
-12 10 -14 10 -8 1 4 -7 2 -13 -3 -13 -6 0 -11 6 -11 13 0 8 -3 8 -8 1 -12
-18 -39 -23 -53 -11 -8 8 -8 5 1 -7 14 -18 13 -19 -3 -13 -10 4 -21 7 -23 7
-3 0 -2 5 1 10 3 6 -3 10 -14 10 -11 0 -23 5 -26 10 -6 10 -25 14 -25 6z m125
-64 c-8 -8 -25 10 -19 20 4 6 9 5 15 -3 4 -7 6 -15 4 -17z m45 -7 c0 -9 -6
-12 -17 -8 -11 5 -13 8 -4 11 8 3 7 8 -6 19 -17 13 -16 13 5 3 12 -6 22 -17
22 -25z"/>
<path d="M2750 3810 l-25 -21 30 7 c17 4 35 11 40 16 6 6 3 6 -9 2 -13 -5 -17
-4 -12 4 10 17 5 15 -24 -8z"/>
<path d="M2782 3630 c-12 -20 -6 -26 13 -12 12 9 18 32 7 32 -4 0 -13 -9 -20
-20z"/>
<path d="M2834 3433 c2 -10 -2 -21 -8 -25 -7 -5 -5 -8 5 -8 11 0 17 9 17 25 0
14 -4 25 -8 25 -5 0 -7 -8 -6 -17z"/>
<path d="M2845 3393 c-15 -12 -16 -14 -3 -10 9 3 19 1 22 -6 2 -7 5 -2 5 11 1
26 2 26 -24 5z"/>
<path d="M2840 3345 c7 -8 17 -15 22 -15 6 0 5 7 -2 15 -7 8 -17 15 -22 15 -6
0 -5 -7 2 -15z"/>
<path d="M7090 4660 c-110 -72 -203 -144 -307 -236 l-63 -55 1 -137 c1 -87 4
-124 9 -102 4 19 8 29 9 21 0 -8 4 -11 7 -8 4 4 1 13 -6 22 -24 29 23 45 52
18 10 -9 18 -13 18 -8 0 4 8 1 17 -6 15 -12 16 -12 10 4 -5 13 -3 16 6 10 16
-10 58 -12 51 -2 -2 4 0 10 6 14 5 3 10 -2 10 -12 0 -15 2 -16 10 -3 8 13 10
12 10 -2 0 -10 5 -18 11 -18 5 0 7 5 4 10 -3 6 1 10 11 10 13 0 15 6 10 33 -5
28 -1 35 32 59 107 79 167 129 164 139 -1 6 2 8 8 4 5 -3 19 9 30 27 25 41 26
56 3 36 -10 -9 -24 -13 -30 -11 -7 3 -13 0 -13 -7 0 -6 5 -8 10 -5 6 3 10 1
10 -5 0 -7 -6 -10 -12 -7 -7 2 -20 -2 -29 -10 -14 -12 -18 -11 -30 4 -13 16
-12 17 3 5 14 -11 18 -10 27 7 6 11 11 21 11 23 0 2 -22 4 -49 4 -39 0 -48 -3
-43 -15 3 -9 1 -12 -6 -7 -7 4 -12 2 -12 -3 0 -15 13 -14 29 2 9 8 12 8 7 0
-3 -6 0 -14 6 -16 7 -3 0 -6 -16 -6 -25 -1 -27 -3 -15 -18 8 -9 9 -14 3 -10
-13 8 -27 -19 -19 -34 4 -5 -1 -6 -10 -3 -11 5 -14 2 -8 -12 5 -13 3 -16 -10
-11 -11 4 -17 1 -17 -8 0 -8 5 -15 12 -15 19 0 -1 -14 -25 -17 -17 -2 -19 -1
-7 6 8 6 11 13 8 17 -4 3 -14 -1 -23 -10 -9 -9 -12 -16 -6 -16 6 0 11 -6 11
-14 0 -10 -10 -14 -30 -14 -18 1 -27 5 -23 12 4 6 -1 5 -10 -2 -14 -12 -16
-11 -15 10 1 13 6 30 12 38 9 13 8 13 -5 3 -9 -7 -19 -10 -23 -6 -3 4 -3 -7 0
-24 5 -26 2 -31 -18 -38 -12 -4 -27 -6 -32 -6 -5 1 -6 -5 -3 -14 4 -8 2 -15
-3 -15 -6 0 -10 4 -10 8 0 5 -6 9 -14 9 -8 0 -12 -6 -9 -14 4 -9 -3 -12 -21
-11 -25 2 -26 5 -26 65 0 53 3 63 18 63 13 0 14 2 4 9 -10 6 -3 19 31 50 76
71 211 176 316 245 87 58 111 76 98 76 -1 0 -50 -31 -107 -70z m27 -266 c-3
-3 -12 -4 -19 -1 -8 3 -5 6 6 6 11 1 17 -2 13 -5z m-33 -38 c-3 -9 -10 -16
-15 -16 -5 0 -4 9 3 20 14 22 21 20 12 -4z m-49 -36 c3 -5 1 -10 -4 -10 -6 0
-11 5 -11 10 0 6 2 10 4 10 3 0 8 -4 11 -10z m-178 -75 c0 -8 -4 -12 -9 -9 -5
3 -6 10 -3 15 9 13 12 11 12 -6z m-34 -32 c-7 -2 -19 -2 -25 0 -7 3 -2 5 12 5
14 0 19 -2 13 -5z"/>
<path d="M6979 4383 c-13 -16 -12 -17 4 -4 9 7 17 15 17 17 0 8 -8 3 -21 -13z"/>
<path d="M6745 4330 c3 -5 11 -10 16 -10 6 0 7 5 4 10 -3 6 -11 10 -16 10 -6
0 -7 -4 -4 -10z"/>
<path d="M6778 4273 c7 -3 16 -2 19 1 4 3 -2 6 -13 5 -11 0 -14 -3 -6 -6z"/>
<path d="M6755 4180 c-3 -6 1 -7 9 -4 18 7 21 14 7 14 -6 0 -13 -4 -16 -10z"/>
<path d="M6962 4115 c0 -16 2 -22 5 -12 2 9 2 23 0 30 -3 6 -5 -1 -5 -18z"/>
<path d="M6660 4089 c-24 -5 -73 -28 -107 -51 l-63 -43 0 -132 c0 -114 -2
-133 -17 -141 -9 -6 -85 -72 -169 -148 l-152 -139 -6 -120 c-9 -179 -12 -1455
-3 -1455 4 0 7 249 7 553 0 303 3 656 6 782 l6 230 115 109 c63 60 139 129
169 154 l54 44 0 127 0 127 60 42 c36 26 70 42 88 42 15 0 37 7 48 15 10 8 17
14 14 14 -3 -1 -25 -5 -50 -10z"/>
<path d="M6960 4051 c0 -11 -6 -22 -12 -24 -8 -3 -6 -6 5 -6 12 -1 17 7 17 24
0 14 -2 25 -5 25 -3 0 -5 -9 -5 -19z"/>
<path d="M6833 4013 c15 -2 37 -2 50 0 12 2 0 4 -28 4 -27 0 -38 -2 -22 -4z"/>
<path d="M6709 3983 c-13 -16 -12 -17 4 -4 16 13 21 21 13 21 -2 0 -10 -8 -17
-17z"/>
<path d="M6669 3933 c-13 -16 -12 -17 4 -4 9 7 17 15 17 17 0 8 -8 3 -21 -13z"/>
<path d="M6320 3466 c0 -13 -7 -26 -15 -30 -8 -3 -12 -12 -9 -21 4 -10 0 -15
-10 -15 -20 0 -21 -26 0 -34 8 -3 12 -2 9 4 -3 6 1 7 9 4 19 -7 21 -20 5 -30
-8 -4 -7 -9 2 -15 11 -7 11 -9 -1 -9 -12 0 -12 -2 -2 -9 11 -7 11 -9 -2 -14
-9 -4 -16 -2 -16 3 0 6 -9 19 -20 30 -11 11 -20 16 -20 12 0 -4 5 -13 12 -20
7 -7 8 -12 3 -12 -5 0 1 -7 13 -16 12 -8 26 -13 30 -10 4 2 9 -7 10 -21 1 -15
4 -29 7 -31 3 -3 5 54 5 126 0 73 -2 132 -5 132 -3 0 -5 -11 -5 -24z"/>
<path d="M6215 3450 c-3 -5 -1 -10 4 -10 6 0 11 5 11 10 0 6 -2 10 -4 10 -3 0
-8 -4 -11 -10z"/>
<path d="M6234 3408 c-3 -4 5 -5 17 -3 30 6 36 14 9 12 -12 -1 -24 -5 -26 -9z"/>
<path d="M6233 3377 c0 -8 6 -14 13 -14 7 0 10 6 7 14 -3 7 -8 13 -12 13 -4 0
-8 -6 -8 -13z"/>
<path d="M6247 3289 c7 -7 15 -10 18 -7 3 3 -2 9 -12 12 -14 6 -15 5 -6 -5z"/>
<path d="M6290 3250 c-13 -8 -12 -10 3 -10 9 0 17 5 17 10 0 12 -1 12 -20 0z"/>
<path d="M6285 3220 c-3 -5 -1 -10 4 -10 6 0 11 5 11 10 0 6 -2 10 -4 10 -3 0
-8 -4 -11 -10z"/>
<path d="M6306 3203 c-3 -10 -1 -34 4 -53 l9 -35 -2 40 c0 23 3 46 7 53 4 7 3
12 -3 12 -5 0 -12 -8 -15 -17z"/>
<path d="M6311 3084 c0 -11 3 -14 6 -6 3 7 2 16 -1 19 -3 4 -6 -2 -5 -13z"/>
<path d="M6199 2942 c7 -5 10 -15 7 -21 -4 -6 -2 -11 4 -11 17 0 8 33 -10 37
-12 4 -13 3 -1 -5z"/>
<path d="M6161 2694 c0 -11 3 -14 6 -6 3 7 2 16 -1 19 -3 4 -6 -2 -5 -13z"/>
<path d="M6160 2585 c0 -8 4 -15 10 -15 5 0 7 7 4 15 -4 8 -8 15 -10 15 -2 0
-4 -7 -4 -15z"/>
<path d="M6161 2294 c0 -11 3 -14 6 -6 3 7 2 16 -1 19 -3 4 -6 -2 -5 -13z"/>
<path d="M6169 2168 c-7 -23 -4 -38 7 -42 11 -4 12 -1 5 13 -6 10 -7 21 -4 25
3 3 3 6 0 6 -4 0 -7 -1 -8 -2z"/>
<path d="M7205 3669 c-3 -4 2 -6 10 -5 21 3 28 13 10 13 -9 0 -18 -4 -20 -8z"/>
<path d="M7247 3667 c-4 -12 2 -14 29 -10 22 3 34 1 34 -7 0 -7 -6 -10 -13 -7
-7 3 -13 -3 -13 -12 0 -14 4 -15 22 -7 25 12 28 46 4 46 -8 0 -25 3 -36 6 -14
4 -23 0 -27 -9z"/>
<path d="M7205 3641 c-17 -7 -15 -9 12 -13 26 -4 30 -2 22 9 -7 7 -12 13 -13
12 0 0 -10 -4 -21 -8z"/>
<path d="M7156 3594 c-9 -8 -16 -21 -15 -27 0 -8 2 -8 6 1 2 6 10 9 16 5 7 -3
9 -3 5 2 -4 4 -3 14 3 22 16 18 4 16 -15 -3z"/>
<path d="M7245 3600 c3 -5 8 -10 11 -10 2 0 4 5 4 10 0 6 -5 10 -11 10 -5 0
-7 -4 -4 -10z"/>
<path d="M7200 3597 c0 -2 6 -10 14 -16 11 -9 16 -9 22 1 4 7 4 10 -1 6 -4 -4
-14 -3 -22 3 -7 6 -13 9 -13 6z"/>
<path d="M7105 3579 c-4 -6 -5 -12 -2 -15 2 -3 7 2 10 11 7 17 1 20 -8 4z"/>
<path d="M7168 3553 c7 -3 16 -2 19 1 4 3 -2 6 -13 5 -11 0 -14 -3 -6 -6z"/>
<path d="M7090 3535 c0 -8 8 -15 18 -15 13 0 14 2 3 9 -11 7 -11 9 0 14 10 4
9 6 -3 6 -10 1 -18 -6 -18 -14z"/>
<path d="M7136 3514 c-9 -8 -16 -13 -16 -9 0 4 -7 -1 -16 -10 -29 -29 -9 -25
27 5 19 16 31 29 27 30 -4 0 -14 -7 -22 -16z"/>
</g>
</svg>
